<svg xmlns="http://www.w3.org/2000/svg" viewBox="0 0 63.85 92.873">
  <defs>
    <style>
      .cls-1 {
        fill: #fff;
      }
    </style>
  </defs>
  <path id="lightbulb" class="cls-1" d="M62.436,77.636v5.079a4.355,4.355,0,0,1-2.9,4.1v1.7a4.353,4.353,0,0,1-4.353,4.353H40.669a4.353,4.353,0,0,1-4.353-4.353v-1.7a4.355,4.355,0,0,1-2.9-4.1V77.636a2.177,2.177,0,0,1,2.177-2.177H60.26A2.177,2.177,0,0,1,62.436,77.636ZM36.478,69.655a4.345,4.345,0,0,1-4.059-2.78C25.377,48.53,16,50.378,16,31.925a31.925,31.925,0,0,1,63.85,0c0,18.453-9.377,16.6-16.419,34.949a4.345,4.345,0,0,1-4.059,2.78Zm-3.064-37.73A14.528,14.528,0,0,1,47.925,17.414a2.9,2.9,0,0,0,0-5.8A20.339,20.339,0,0,0,27.609,31.925a2.9,2.9,0,1,0,5.8,0Z" transform="translate(-16)"/>
</svg>
